<svg viewBox="0 0 1024 1024" xmlns="http://www.w3.org/2000/svg">
  <path fill="currentColor" d="M894.9 347.7c-2.1-2.1-203.7-203.5-223.4-222.8-0.7-0.7-1.3-1.3-2.1-1.9-36.6-29.8-89.3-27.1-122.6 6.3-28.2 28.1-26.6 65.8-25.6 90.3 0.1 6.3 0.3 12.8 0.3 18.8 0 26.1-24.6 63.9-62.6 96.3-39.7 33.9-85.4 54.6-111.3 50.4-6.1-1-11.7-1.5-16.7-1.9-2.4-0.2-4.5-0.4-6.6-0.6-122.2-30.3-177.2 49.9-183.6 60-9.3 16.2-6.8 36.6 6.3 49.6l133.6 133.6-170.4 230.7c-12.1 16.2-10.4 38.5 4.1 53.1 8 8 18.4 12.1 28.8 12.1 8.4 0 16.8-2.6 23.9-8l233.1-168.4 132 132c13.3 13.3 33.9 15.8 50.4 5.8 9.2-5.8 89.2-60.4 59.7-180.1-0.3-2-2-16.5-2.9-24.7-2.1-25.6 22.9-82.7 63.5-126.9 28.8-31.3 58.3-48.6 83-48.6 6 0 12.5 0.1 18.4 0.3 25 1.1 62.8 2.7 90.9-25.4 17.3-17.3 26.9-40.3 26.8-64.9-0.1-24.6-9.6-47.7-27-65.1z m-28.8 100.9c-14.2 14.2-34.7 14.5-60.6 13.4-6.6-0.1-13.4-0.3-19.7-0.3-46.5 0-87.1 33.6-113.1 61.8-45.7 49.7-77.6 117.6-74.1 158.5 1.1 9.9 3.1 26.9 3.5 28.8 23 93.7-34.8 133.3-41.1 137.4L418.3 705.6c-6.7-9.1-20.4-12.4-29.5-5.7l-245.7 181L324 636c6-8.2 5.2-19.5-2-26.6L175.9 463.7c4.2-6.7 44.1-64.7 138.3-41.4 1.9 0.6 3.8 1 5.8 1 2.3 0.3 4.8 0.5 7.5 0.7 4.1 0.3 8.7 0.7 13.8 1.6 46 7.4 104.8-26 144.4-59.7 48.2-41.1 77-88.7 77-127.4 0-6.3-0.1-13.1-0.3-20.1-1-25.3-0.7-45.7 13.6-60.1 18.5-18.5 47.6-20 67-4.2 6.3 6.1 221 220.5 223.1 222.6 9.6 9.6 14.9 22.4 15 36-0.1 13.6-5.4 26.3-15 35.9z" />
</svg>
